

<svg version="1.1" id="man" xmlns="http://www.w3.org/2000/svg" xmlns:xlink="http://www.w3.org/1999/xlink" x="0px" y="0px"
	 width="256px" height="256px" viewBox="0 0 256 256" enable-background="new 0 0 256 256" xml:space="preserve">
<rect fill="#C6D8E1" width="256" height="256"/>
<g>
	<path fill="#7F96A6" d="M207.9,195.4L182,96.5c-0.5-1.8-1.5-4.5-2.4-6.1l-7.4-14.2c-1-1.8-3.4-3.4-5.5-3.4H89.5
		c-2.1,0-4.6,1.4-5.5,3.4l-7.6,14.6c-0.8,1.6-1.9,4.3-2.4,6.1l-25.9,98.5c-0.3,1.1-0.1,2.2,0.6,3c0.7,0.8,1.7,1.3,2.8,1.3h5.8
		c1.6,0,4.1,0.6,5.5,1.4l11.2,6.2c0.9,0.5,2,0.7,3.3,0.7s2.4-0.2,3.3-0.7l11.2-6.2c0.6-0.3,1.5-0.5,2.4-0.5c0.9,0,1.7,0.2,2.4,0.5
		l11.2,6.2c0.9,0.5,2,0.7,3.3,0.7s2.4-0.2,3.3-0.7l11.2-6.2c0.6-0.3,1.5-0.5,2.4-0.5c0.9,0,1.7,0.2,2.4,0.5l11.2,6.2
		c0.9,0.5,2,0.7,3.3,0.7c1.2,0,2.4-0.2,3.3-0.7l11.2-6.2c0.6-0.3,1.5-0.5,2.4-0.5s1.7,0.2,2.4,0.5l11.2,6.2c0.9,0.5,2,0.7,3.3,0.7
		c1.2,0,2.4-0.2,3.3-0.7l11.2-6.2c1.4-0.8,3.9-1.4,5.5-1.4h5.8c1.1,0,2.2-0.5,2.8-1.3C208,197.5,208.1,196.4,207.9,195.4z"/>
	<path fill="#7F96A6" d="M88.9,66.7h78.3c1.6,0,3-1.4,3-3V51c0-1.6-1.4-3-3-3H88.9c-1.6,0-3,1.4-3,3v12.8
		C85.9,65.4,87.3,66.7,88.9,66.7z M118.8,53.8c0-1.3,1.1-2.4,2.4-2.4h13.7c1.3,0,2.4,1,2.4,2.4v7.1c0,1.3-1.1,2.4-2.4,2.4h-13.7
		c-1.3,0-2.4-1-2.4-2.4V53.8z"/>
	<rect x="122.8" y="55.4" fill="#7F96A6" width="10.4" height="3.9"/>
</g>
</svg>
